<?xml version="1.0" encoding="UTF-8" standalone="no" ?>
<!DOCTYPE svg PUBLIC "-//W3C//DTD SVG 1.1//EN" "http://www.w3.org/Graphics/SVG/1.1/DTD/svg11.dtd">
<svg xmlns="http://www.w3.org/2000/svg" xmlns:xlink="http://www.w3.org/1999/xlink" version="1.1" width="62" height="76.96552" viewBox="0 -6.45161289725138e-7 29.000000000000004 36.00000129032258" xml:space="preserve">
<desc>Created with Fabric.js 5.3.0</desc>
<defs>
</defs>
<g transform="matrix(1.1242238327 0 0 1.1242238327 12.8196280319 18.840111037)" id="tVw_W8GJeSR572UZrfdKW"  >
<g style=""   >
		<g transform="matrix(1 0 0 1 -0.1615 3.095)" id="UKZh7FJDNYqM4hg9VfoG2"  >
<path style="stroke: none; stroke-width: 1; stroke-dasharray: none; stroke-linecap: butt; stroke-dashoffset: 0; stroke-linejoin: miter; stroke-miterlimit: 4; fill: rgb(102,102,102); fill-rule: nonzero; opacity: 1;"  transform=" translate(-14.3385, -21.095)" d="M 20.793 18.083 L 8.962 18.083 L 8.962 14.212999999999997 L 13.607 14.212999999999997 L 13.607 13.134999999999998 L 7.884 13.134999999999998 L 7.884 18.083 L 3.221 18.083 L 3.221 24.107999999999997 L 7.884 24.107999999999997 L 7.884 29.054999999999996 L 25.456 29.054999999999996 L 25.456 23.029999999999994 L 20.793 23.029999999999994 L 20.793 18.082999999999995 Z M 16.669999999999998 19.160999999999998 L 19.714999999999996 19.160999999999998 L 19.714999999999996 23.029999999999998 L 12.545999999999996 23.029999999999998 L 12.545999999999996 19.160999999999998 L 16.669999999999995 19.160999999999998 Z M 4.298999999999998 23.029999999999998 L 4.298999999999998 19.160999999999998 L 11.467999999999996 19.160999999999998 L 11.467999999999996 23.029999999999998 L 4.299 23.029999999999998 Z M 24.378 24.107999999999997 L 24.378 27.976999999999997 L 17.209 27.976999999999997 L 17.209 24.107999999999997 L 24.378 24.107999999999997 Z" stroke-linecap="round" />
</g>
		<g transform="matrix(1 0 0 1 7.2715 -8.0508125275)" id="HwWsCh_Jt4uEwdLW3NGoB"  >
<path style="stroke: none; stroke-width: 1; stroke-dasharray: none; stroke-linecap: butt; stroke-dashoffset: 0; stroke-linejoin: miter; stroke-miterlimit: 4; fill: rgb(102,102,102); fill-rule: nonzero; opacity: 0.5;"  transform=" translate(-21.7715, -9.9491874725)" d="M 28.192 3.714 L 28.008 3.53 C 27.156 2.678 25.771 2.679 24.919 3.53 L 20.925 7.524 L 22.181 8.779 L 20.649 10.311 L 17.11 6.772 L 14.713999999999999 17.006999999999998 L 24.948 14.610999999999997 L 21.409 11.071999999999997 L 22.941 9.539999999999997 L 24.197 10.794999999999998 L 28.189999999999998 6.801999999999998 C 29.041999999999998 5.9499999999999975 29.041999999999998 4.564999999999998 28.189999999999998 3.712999999999998 Z M 22.817 14.004 L 16.161 15.562999999999999 L 17.719 8.905999999999999 L 19.887 11.073999999999998 L 18.861 12.099999999999998 L 19.623 12.861999999999998 L 20.649 11.835999999999999 L 22.817 14.003999999999998 Z M 27.43 6.0409999999999995 L 24.198999999999998 9.271999999999998 L 22.450999999999997 7.523999999999998 L 25.680999999999997 4.291999999999998 C 26.113999999999997 3.858999999999998 26.816 3.860999999999998 27.246 4.291999999999998 L 27.43 4.475999999999998 C 27.862 4.907999999999999 27.862 5.609999999999998 27.43 6.040999999999999 Z" stroke-linecap="round" />
</g>
</g>
</g>
<g transform="matrix(0.8922134102 0 0 0.8346250285 10.6574675325 27.9642857143)" id="DDK4E4Ao_IRH-QJghwX5L"  >
<path style="stroke: rgb(179,179,179); stroke-width: 1; stroke-dasharray: none; stroke-linecap: butt; stroke-dashoffset: 0; stroke-linejoin: miter; stroke-miterlimit: 4; fill: rgb(179,179,179); fill-rule: nonzero; opacity: 1;"  transform=" translate(0, 0)" d="M -4.00325 -2.11851 L 4.003239999999999 -2.11851 L 4.003239999999999 2.1184999999999996 L -4.00325 2.1184999999999996 z" stroke-linecap="round" />
</g>
</svg>