<?xml version="1.0" encoding="UTF-8" standalone="no" ?>
<!DOCTYPE svg PUBLIC "-//W3C//DTD SVG 1.1//EN" "http://www.w3.org/Graphics/SVG/1.1/DTD/svg11.dtd">
<svg xmlns="http://www.w3.org/2000/svg" version="1.1" width="100" height="100" viewBox="0 0 800 800" xml:space="preserve">
<desc>Created with Fabric.js 5.3.0</desc>
<defs>
</defs>
<g transform="matrix(1.3020833333 0 0 1.3020833333 400 417.4823295237)" id="lqyfaAfEopn76s_Z7Cslq"  >
<path style="stroke: rgb(102,102,102); stroke-width: 0.00512; stroke-dasharray: none; stroke-linecap: butt; stroke-dashoffset: 0; stroke-linejoin: miter; stroke-miterlimit: 4; fill: rgb(102,102,102); fill-rule: nonzero; opacity: 1;"  transform=" translate(0, 0)" d="M 215.843 70.275 L 215.843 10.040000000000006 L 256 10.039000000000007 L 256 -70.274 L 185.726 -70.274 L 185.726 -130.50900000000001 L 95.373 -130.50900000000001 L 95.372 -190.745 L -55.498000000000005 -190.745 L -205.80400000000003 -190.745 L -205.80400000000003 -130.51 L -256 -130.51 L -256 -50.196 L -185.726 -50.196 L -185.726 -10.039000000000001 L -225.88299999999998 -10.039000000000001 L -225.88299999999998 50.196999999999996 L -255.99999999999997 50.196999999999996 L -255.99999999999997 130.51 L -185.72599999999997 130.51 L -185.72499999999997 190.745 L -35.41999999999996 190.745 L 105.13000000000005 190.745 L 256.00000000000006 190.745 L 256.00000000000006 110.432 L 185.72600000000006 110.432 L 185.72600000000006 70.275 z M 235.922 -50.196 L 235.922 -10.039000000000001 L 205.523 -10.039000000000001 L 115.452 -10.039000000000001 L 115.452 -50.196 L 175.405 -50.196 z M 165.647 -110.431 L 165.647 -70.274 L 105.13 -70.274 L 45.17699999999999 -70.274 L 45.17699999999999 -110.431 L 85.05199999999999 -110.431 z M -65.255 10.039 L -35.419 10.039 L 55.21600000000001 10.039 L 55.21600000000001 50.196 L 34.85600000000001 50.196 L -65.25399999999999 50.196 L -65.25399999999999 10.039000000000001 z M -75.576 -10.039 L -165.647 -10.039 L -165.647 -50.196 L -105.69399999999999 -50.196 L -45.176999999999985 -50.196 L -45.176999999999985 -10.039000000000001 z M -25.098 -10.039 L -25.098 -50.196 L 34.855000000000004 -50.196 L 95.37200000000001 -50.196 L 95.37200000000001 -10.039000000000001 L 64.97300000000001 -10.039000000000001 z M -45.176 -170.667 L 75.295 -170.667 L 75.295 -130.51 L 34.856 -130.51 L -45.175999999999995 -130.51 z M -55.497 -110.431 L 25.099000000000004 -110.431 L 25.099000000000004 -70.274 L -35.418 -70.274 L -95.37100000000001 -70.274 L -95.37100000000001 -110.431 z M -185.725 -170.667 L -65.25399999999999 -170.667 L -65.25399999999999 -130.51 L -105.69299999999998 -130.51 L -185.72499999999997 -130.51 z M -235.922 -70.275 L -235.922 -110.432 L -196.047 -110.432 L -115.451 -110.432 L -115.451 -70.275 L -175.968 -70.275 z M -205.804 10.039 L -175.96800000000002 10.039 L -85.33300000000001 10.039 L -85.33300000000001 50.196 L -105.69300000000001 50.196 L -205.80400000000003 50.196 z M -235.922 110.431 L -235.922 70.274 L -216.125 70.274 L -115.451 70.274 L -115.451 110.431 L -175.968 110.431 z M -45.176 170.667 L -165.647 170.667 L -165.647 130.51 L -105.69399999999999 130.51 L -45.176999999999985 130.51 L -45.176999999999985 170.66699999999997 z M -95.373 110.431 L -95.373 70.274 L -75.57600000000001 70.274 L 25.098 70.274 L 25.098 110.431 L -35.419000000000004 110.431 z M 95.373 170.667 L -25.098 170.667 L -25.098 130.51 L 34.855000000000004 130.51 L 95.37200000000001 130.51 L 95.37200000000001 170.66699999999997 z M 45.176 110.431 L 45.176 70.274 L 64.973 70.274 L 165.647 70.274 L 165.647 110.431 L 105.13 110.431 z M 235.922 130.51 L 235.922 170.66699999999997 L 115.451 170.66699999999997 L 115.451 130.51 L 175.404 130.51 z M 175.404 50.196 L 75.294 50.196 L 75.294 10.039000000000001 L 105.13 10.039000000000001 L 195.765 10.039000000000001 L 195.765 50.196 z" stroke-linecap="round" />
</g>
</svg>