<?xml version="1.0" encoding="UTF-8" standalone="no" ?>
<!DOCTYPE svg PUBLIC "-//W3C//DTD SVG 1.1//EN" "http://www.w3.org/Graphics/SVG/1.1/DTD/svg11.dtd">
<svg xmlns="http://www.w3.org/2000/svg" xmlns:xlink="http://www.w3.org/1999/xlink" version="1.1" width="500" height="500" viewBox="0 0 500 500" xml:space="preserve">
<defs>
</defs>
<g transform="matrix(1.4964048036 0 0 1.4414240605 280.6762984739 200.6484464987)" id="RvNSve6MVv2YQmqHL6BSg"  >
<path style="stroke: rgb(42, 42, 42); stroke-width: 1; stroke-dasharray: none; stroke-linecap: butt; stroke-dashoffset: 0; stroke-linejoin: miter; stroke-miterlimit: 4; fill: rgb(42, 42, 42); fill-rule: nonzero; opacity: 1;"  transform=" translate(0, 0)" d="M -16.1 -14.82592 C -16.1 -15.28546 -15.74116 -15.65799 -15.2985 -15.65799 L 15.233719999999998 -15.65799 L 15.233719999999998 -15.65799 C 15.712149999999998 -15.65799 16.099999999999998 -15.25535 16.099999999999998 -14.75867 L 16.099999999999998 14.747919999999999 L 16.099999999999998 14.747919999999999 C 16.099999999999998 15.25053 15.707519999999997 15.657979999999998 15.223379999999999 15.657979999999998 L -15.288150000000002 15.657979999999998 L -15.288150000000002 15.657979999999998 C -15.736520000000002 15.657979999999998 -16.099990000000002 15.280639999999998 -16.099990000000002 14.815169999999998 z" stroke-linecap="round" />
</g>
<g transform="matrix(1.4964048036 0 0 1.4414240605 219.323701527 200.6484464987)" id="ddrPONj82yM_kqGUUuuwN"  >
<path style="stroke: rgb(42, 42, 42); stroke-width: 1; stroke-dasharray: none; stroke-linecap: butt; stroke-dashoffset: 0; stroke-linejoin: miter; stroke-miterlimit: 4; fill: rgb(42, 42, 42); fill-rule: nonzero; opacity: 1;"  transform=" translate(0, 0)" d="M -16.1 -14.82592 C -16.1 -15.28546 -15.74116 -15.65799 -15.2985 -15.65799 L 15.233719999999998 -15.65799 L 15.233719999999998 -15.65799 C 15.712149999999998 -15.65799 16.099999999999998 -15.25535 16.099999999999998 -14.75867 L 16.099999999999998 14.747919999999999 L 16.099999999999998 14.747919999999999 C 16.099999999999998 15.25053 15.707519999999997 15.657979999999998 15.223379999999999 15.657979999999998 L -15.288150000000002 15.657979999999998 L -15.288150000000002 15.657979999999998 C -15.736520000000002 15.657979999999998 -16.099990000000002 15.280639999999998 -16.099990000000002 14.815169999999998 z" stroke-linecap="round" />
</g>
<g transform="matrix(1.3130335496 0 0 1.2951188343 155.4629764928 322.6433450003)" id="ZGbB6fXbEMnNsmKWAIcCM"  >
<path style="stroke: rgb(42, 42, 42); stroke-width: 1; stroke-dasharray: none; stroke-linecap: butt; stroke-dashoffset: 0; stroke-linejoin: miter; stroke-miterlimit: 4; fill: rgb(42, 42, 42); fill-rule: nonzero; opacity: 1;"  transform=" translate(0, 0)" d="M 62.39683 39.26329 C 62.43042 39.29925 62.48598 39.302009999999996 62.522870000000005 39.269549999999995 C 62.559760000000004 39.2371 62.5649 39.18093999999999 62.534530000000004 39.14216 L -71.74783000000001 -132.32249000000002 L -71.74783000000001 -132.32249000000002 C -72.06455000000001 -132.72690000000003 -72.59895 -132.88393000000002 -73.07988 -132.71390000000002 C -73.56082 -132.54387000000003 -73.88303 -132.08400000000003 -73.88303 -131.56761000000003 L -73.88303 8.053889999999967 L -73.88303 42.04697999999997 L -73.88303 42.04697999999997 C -73.88303 43.13139999999997 -73.31982 44.13569999999997 -72.40066 44.69029999999997 L 73.54431000000001 132.74970999999996 L 73.54431000000001 132.74970999999996 C 73.63627000000001 132.80519999999996 73.75410000000001 132.78701999999996 73.82563 132.70630999999997 C 73.89715000000001 132.62559999999996 73.90241 132.50487999999999 73.83818000000001 132.41809999999998 L 46.031940000000006 94.84695999999998 L 46.031940000000006 94.84695999999998 C 45.564350000000005 94.21515999999998 44.981390000000005 93.68029999999999 44.31477 93.27146999999998 L -50.54721 35.09357999999998 L -51.87328 34.37074999999998 L -51.87328 34.37074999999998 C -53.03772 33.73601999999998 -53.764050000000005 32.50402999999998 -53.764050000000005 31.16366999999998 L -53.764050000000005 -82.43787000000002 L -53.764050000000005 -82.43787000000002 C -53.764050000000005 -82.86900000000001 -53.50484 -83.25658000000001 -53.109790000000004 -83.41614000000001 C -52.714740000000006 -83.57570000000001 -52.26366 -83.47501000000001 -51.97124 -83.16199000000002 z" stroke-linecap="round" />
</g>
<g transform="matrix(1.3130335496 0 0 1.2966148647 299.0158504129 243.1772775332)" id="hp9o52JfZyk3Ggv2UcG9w"  >
<path style="stroke: rgb(42, 42, 42); stroke-width: 1; stroke-dasharray: none; stroke-linecap: butt; stroke-dashoffset: 0; stroke-linejoin: miter; stroke-miterlimit: 4; fill: rgb(42, 42, 42); fill-rule: nonzero; opacity: 1;"  transform=" translate(0, 0)" d="M -108.53337 59.05916 C -108.56334000000001 59.016819999999996 -108.55592 58.95822 -108.51636 58.92491 C -108.47680000000001 58.8916 -108.41855000000001 58.894909999999996 -108.38291000000001 58.93248 L -15.987380000000016 156.33678 L -15.987380000000016 156.33678 C -15.255320000000015 157.10853 -14.092920000000015 157.26363 -13.188430000000016 156.71025 L 87.51727999999999 95.09682000000001 L 87.51727999999999 95.09682000000001 C 88.35677999999999 94.5832 88.86981999999999 93.66232000000001 88.86981999999999 92.66908000000001 L 88.86981999999999 -59.88065 L 88.86981999999999 -59.88065 C 88.86981999999999 -61.145230000000005 88.22048 -62.318830000000005 87.15547 -62.97914 L 60.71343999999999 -79.3732 L 60.71343999999999 -79.3732 C 59.67779999999999 -80.0153 59.04165999999999 -81.15221 59.03000999999999 -82.38186 L 58.26820999999999 -162.75596000000002 L 58.26820999999999 -162.75596000000002 C 58.26006999999999 -163.61433000000002 57.57061999999999 -164.30584000000002 56.72294999999999 -164.30584000000002 L 45.18714999999999 -164.30584000000002 L 45.18714999999999 -164.30584000000002 C 44.46784999999999 -164.30584000000002 43.88473999999999 -163.71535000000003 43.88473999999999 -162.98694 L 43.88473999999999 -126.37286 L 43.88473999999999 -126.37286 C 43.88473999999999 -126.2302 43.81031999999998 -126.09816000000001 43.689019999999985 -126.02561 C 43.56771999999999 -125.95306 43.417599999999986 -125.9508 43.294229999999985 -126.01967 L 25.351169999999986 -136.03594 L 25.351169999999986 -136.03594 C 24.676499999999987 -136.41256 24.257499999999986 -137.13096000000002 24.257499999999986 -137.91111 L 24.257499999999986 -181.1747 L 24.257499999999986 -181.1747 C 24.257499999999986 -182.39892 25.237509999999986 -183.39134 26.446419999999986 -183.39134 L 75.50819999999999 -183.39134 L 75.50819999999999 -183.39134 C 76.84953999999999 -183.39134 77.9369 -182.29020000000003 77.9369 -180.93188 L 77.9369 -92.9715 L 77.9369 -92.9715 C 77.9369 -91.96072000000001 78.45953999999999 -91.02375 79.31438999999999 -90.50195000000001 L 106.68167999999999 -73.79721 L 106.68167999999999 -73.79721 C 107.84220999999998 -73.08884 108.55172999999999 -71.81682 108.55172999999999 -70.44461000000001 L 108.55172999999999 102.95031 L 108.55172999999999 102.95031 C 108.55172999999999 103.87152 108.079 104.72653 107.30345999999999 105.20802 L -18.053420000000017 183.03512 L -18.053420000000017 183.03512 C -19.119120000000017 183.69675 -20.508500000000016 183.41236 -21.236780000000017 182.38352 z" stroke-linecap="round" />
</g>
<g transform="matrix(1.3130335496 0 0 1.3130335496 216.6638533073 94.6900872952)" id="lnaQaiw_CYPKKK0wG84mH"  >
<path style="stroke: rgb(42, 42, 42); stroke-width: 1; stroke-dasharray: none; stroke-linecap: butt; stroke-dashoffset: 0; stroke-linejoin: miter; stroke-miterlimit: 4; fill: rgb(42, 42, 42); fill-rule: nonzero; opacity: 1;"  transform=" translate(0, 0)" d="M -105.09031 32.07814 C -105.33567000000001 32.229769999999995 -105.50359 32.47996 -105.55097 32.764469999999996 C -105.59834000000001 33.04897999999999 -105.52054000000001 33.34009 -105.33755000000001 33.56303 L -94.17402000000001 47.1641 L -94.17402000000001 47.1641 C -93.79930000000002 47.62063 -93.14500000000001 47.73027 -92.64193000000002 47.42082 L 23.157859999999985 -23.81131 L 23.157859999999985 -23.81131 C 24.245959999999986 -24.480629999999998 25.618249999999986 -24.48011 26.705839999999984 -23.80997 L 104.85799999999998 24.345440000000004 L 104.85799999999998 24.345440000000004 C 105.00097999999997 24.433540000000004 105.18042999999997 24.437390000000004 105.32706999999998 24.355510000000002 C 105.47369999999998 24.27363 105.56455999999997 24.118830000000003 105.56455999999997 23.95088 L 105.56455999999997 2.9107200000000013 L 105.56455999999997 2.9107200000000013 C 105.56455999999997 2.3389000000000015 105.26963999999997 1.8075200000000013 104.78437999999997 1.5050200000000014 L 26.947579999999974 -47.01681 L 26.947579999999974 -47.01681 C 25.713249999999974 -47.78626 24.149389999999975 -47.78931 22.91206999999997 -47.02468 z" stroke-linecap="round" />
</g>
<g transform="matrix(1.4964048036 0 0 1.4414240605 280.6762984735 142.2782972103)" id="EaRnlkf5ZhNnqotz_anJB"  >
<path style="stroke: rgb(42, 42, 42); stroke-width: 1; stroke-dasharray: none; stroke-linecap: butt; stroke-dashoffset: 0; stroke-linejoin: miter; stroke-miterlimit: 4; fill: rgb(42, 42, 42); fill-rule: nonzero; opacity: 1;"  transform=" translate(0, 0)" d="M -16.1 -14.82592 C -16.1 -15.28546 -15.74116 -15.65799 -15.2985 -15.65799 L 15.233719999999998 -15.65799 L 15.233719999999998 -15.65799 C 15.712149999999998 -15.65799 16.099999999999998 -15.25535 16.099999999999998 -14.75867 L 16.099999999999998 14.747919999999999 L 16.099999999999998 14.747919999999999 C 16.099999999999998 15.25053 15.707519999999997 15.657979999999998 15.223379999999999 15.657979999999998 L -15.288150000000002 15.657979999999998 L -15.288150000000002 15.657979999999998 C -15.736520000000002 15.657979999999998 -16.099990000000002 15.280639999999998 -16.099990000000002 14.815169999999998 z" stroke-linecap="round" />
</g>
<g transform="matrix(1.4964048036 0 0 1.4414240605 219.3237015265 142.2782972103)" id="qnxRJFHopB4nwDEjbRYGR"  >
<path style="stroke: rgb(42, 42, 42); stroke-width: 1; stroke-dasharray: none; stroke-linecap: butt; stroke-dashoffset: 0; stroke-linejoin: miter; stroke-miterlimit: 4; fill: rgb(42, 42, 42); fill-rule: nonzero; opacity: 1;"  transform=" translate(0, 0)" d="M -16.1 -14.82592 C -16.1 -15.28546 -15.74116 -15.65799 -15.2985 -15.65799 L 15.233719999999998 -15.65799 L 15.233719999999998 -15.65799 C 15.712149999999998 -15.65799 16.099999999999998 -15.25535 16.099999999999998 -14.75867 L 16.099999999999998 14.747919999999999 L 16.099999999999998 14.747919999999999 C 16.099999999999998 15.25053 15.707519999999997 15.657979999999998 15.223379999999999 15.657979999999998 L -15.288150000000002 15.657979999999998 L -15.288150000000002 15.657979999999998 C -15.736520000000002 15.657979999999998 -16.099990000000002 15.280639999999998 -16.099990000000002 14.815169999999998 z" stroke-linecap="round" />
</g>
</svg>